<svg xmlns="http://www.w3.org/2000/svg">
  <symbol id="icon-moon" viewBox="0 0 24 24">
    <path d="M12.022,22.971c-6.078,0-11.022-4.932-11.022-10.993C1,6.277,5.285,1.573,10.968,1.034c.443-.051,.845,.203,1.015,.604,.171,.4,.062,.866-.269,1.149-1.094,.938-1.626,2.56-1.626,4.957,0,5.128,2.364,6.158,6.179,6.158,2.462,0,4.04-.515,4.968-1.62,.28-.336,.749-.447,1.151-.28,.404,.169,.651,.581,.609,1.017-.535,5.673-5.253,9.951-10.973,9.951ZM8.78,3.576c-3.418,1.296-5.78,4.574-5.78,8.401,0,4.959,4.048,8.993,9.022,8.993,3.832,0,7.115-2.345,8.421-5.74-1.416,.579-2.961,.673-4.177,.673-3.511,0-8.179-.846-8.179-8.158,0-1.653,.229-3.036,.692-4.169Z"/>
  </symbol>

  <symbol id="icon-sun" viewBox="0 0 24 24">
    <path d="M12,17c-2.76,0-5-2.24-5-5s2.24-5,5-5,5,2.24,5,5-2.24,5-5,5Zm0-8c-1.65,0-3,1.35-3,3s1.35,3,3,3,3-1.35,3-3-1.35-3-3-3Zm1-5V1c0-.55-.45-1-1-1s-1,.45-1,1v3c0,.55,.45,1,1,1s1-.45,1-1Zm0,19v-3c0-.55-.45-1-1-1s-1,.45-1,1v3c0,.55,.45,1,1,1s1-.45,1-1ZM5,12c0-.55-.45-1-1-1H1c-.55,0-1,.45-1,1s.45,1,1,1h3c.55,0,1-.45,1-1Zm19,0c0-.55-.45-1-1-1h-3c-.55,0-1,.45-1,1s.45,1,1,1h3c.55,0,1-.45,1-1ZM6.71,6.71c.39-.39,.39-1.02,0-1.41l-2-2c-.39-.39-1.02-.39-1.41,0s-.39,1.02,0,1.41l2,2c.2,.2,.45,.29,.71,.29s.51-.1,.71-.29Zm14,14c.39-.39,.39-1.02,0-1.41l-2-2c-.39-.39-1.02-.39-1.41,0s-.39,1.02,0,1.41l2,2c.2,.2,.45,.29,.71,.29s.51-.1,.71-.29Zm-16,0l2-2c.39-.39,.39-1.02,0-1.41s-1.02-.39-1.41,0l-2,2c-.39,.39-.39,1.02,0,1.41,.2,.2,.45,.29,.71,.29s.51-.1,.71-.29ZM18.71,6.71l2-2c.39-.39,.39-1.02,0-1.41s-1.02-.39-1.41,0l-2,2c-.39,.39-.39,1.02,0,1.41,.2,.2,.45,.29,.71,.29s.51-.1,.71-.29Z" />
  </symbol>

  <symbol id="icon-github" viewBox="-2.5 4 24 24">
    <path d="M18.36 9.28c0.48-1.72-0.24-3.6-0.28-3.72-0.12-0.28-0.4-0.52-0.72-0.52-0.080 0-1.92-0.16-3.76 1.24-1.44-0.28-3.080-0.36-3.16-0.36-0.040 0-0.040 0-0.080 0-0.080 0-1.72 0.080-3.16 0.36-1.84-1.4-3.68-1.24-3.76-1.24-0.32 0.040-0.6 0.24-0.72 0.52-0.040 0.080-0.8 2-0.28 3.72-0.92 1.28-1.64 2.96-1 5.96 0.6 2.72 2.84 4.24 5.16 4.76-0.2 0.56-0.28 1.24-0.36 1.96-0.96 0.040-1.56-0.52-2.4-1.4-0.72-0.76-1.52-1.64-2.84-1.92-0.44-0.12-0.88 0.16-1 0.64-0.080 0.48 0.2 0.92 0.68 1 0.76 0.16 1.28 0.72 1.92 1.4 0.84 0.88 1.8 1.96 3.52 1.96 0 0 0.040 0 0.040 0 0 0.92 0.080 1.8 0.12 2.52 0.040 0.48 0.44 0.8 0.92 0.76s0.8-0.44 0.76-0.92c-0.24-2.72-0.040-5.6 0.4-6 0.32-0.2 0.52-0.56 0.4-0.96-0.080-0.36-0.4-0.64-0.8-0.64-0.36 0-4.12-0.2-4.84-3.52-0.6-2.72 0.16-3.92 0.96-4.88 0.2-0.24 0.24-0.6 0.12-0.92-0.32-0.68-0.2-1.64-0.040-2.28 0.56 0.080 1.4 0.32 2.28 1.080 0.2 0.2 0.48 0.24 0.76 0.2 1.24-0.32 2.92-0.4 3.2-0.4 0.24 0 1.96 0.080 3.2 0.4 0.28 0.080 0.56 0 0.76-0.2 0.88-0.76 1.76-1 2.28-1.080 0.16 0.6 0.28 1.56-0.040 2.28-0.12 0.28-0.080 0.64 0.12 0.92 0.8 0.96 1.52 2.16 0.96 4.88-0.72 3.32-4.48 3.52-4.92 3.56-0.4 0-0.72 0.28-0.8 0.64s0.080 0.76 0.4 0.96c0.48 0.4 0.68 3.24 0.44 6-0.040 0.48 0.32 0.88 0.76 0.92 0.040 0 0.040 0 0.080 0 0.44 0 0.8-0.32 0.84-0.76 0.16-1.76 0.28-4.48-0.28-6.2 2.32-0.48 4.56-2.040 5.16-4.76 0.64-3-0.040-4.68-1-5.96z"></path>
  </symbol>

  <symbol id="icon-mail" viewBox="0 0 24 24">
    <path d="M19,1H5A5.006,5.006,0,0,0,0,6V18a5.006,5.006,0,0,0,5,5H19a5.006,5.006,0,0,0,5-5V6A5.006,5.006,0,0,0,19,1ZM5,3H19a3,3,0,0,1,2.78,1.887l-7.658,7.659a3.007,3.007,0,0,1-4.244,0L2.22,4.887A3,3,0,0,1,5,3ZM19,21H5a3,3,0,0,1-3-3V7.5L8.464,13.96a5.007,5.007,0,0,0,7.072,0L22,7.5V18A3,3,0,0,1,19,21Z"/>
  </symbol>

  <symbol id="icon-linkedin" viewBox="0 0 24 24">
    <circle cx="4" cy="4" r="2"  stroke-width="2" stroke-linecap="round" stroke-linejoin="round"/>
    <rect x="2" y="9" width="4" height="13" stroke-width="2" stroke-linecap="round" stroke-linejoin="round"/>
    <path d="M10 22H14V15C14 13.8954 14.8954 13 16 13C17.1046 13 18 13.8954 18 15V22H22V15C22 11.6863 19.3137 9 16 9C12.6863 9 10 11.6863 10 15V22Z"  stroke-width="2" stroke-linecap="round" stroke-linejoin="round"/>
  </symbol>

  <symbol id="icon-book" viewBox="0 0 24 24">
    <path d="M24,3.5v13.961c0,2.013-1.354,3.796-3.294,4.335l-7.12,1.981c-1.038,.288-2.135,.289-3.173,0l-7.12-1.981c-1.939-.54-3.293-2.322-3.293-4.335V4.5c-.01-.649,1.01-.649,1,0v12.961c0,1.565,1.053,2.952,2.562,3.372l7.121,1.981c.862,.24,1.773,.24,2.636,0l7.12-1.982c1.509-.419,2.562-1.806,2.562-3.372V3.5c-.01-.649,1.01-.649,1,0ZM3,15.911V3.5c0-1.108,.507-2.127,1.392-2.794C5.277,.039,6.396-.17,7.461,.134l3.225,.922c.538,.153,.993,.48,1.313,.908,.32-.428,.776-.755,1.313-.908l3.225-.922c1.066-.304,2.185-.096,3.069,.572,.885,.667,1.392,1.686,1.392,2.794V15.911c0,1.554-1.044,2.938-2.538,3.366l-5.609,1.603c-.558,.159-1.148,.159-1.706,0l-5.608-1.603c-1.495-.427-2.539-1.812-2.539-3.366ZM12.5,3.46V19.938c.026-.006,5.687-1.623,5.687-1.623,1.067-.305,1.813-1.293,1.813-2.404V3.5c0-.792-.362-1.519-.995-1.996-.634-.479-1.44-.625-2.192-.408l-3.225,.922c-.641,.183-1.088,.776-1.088,1.442ZM4,15.911c0,1.11,.746,2.099,1.813,2.404,0,0,5.661,1.617,5.687,1.623V3.46c0-.666-.447-1.259-1.088-1.442l-3.225-.922c-1.529-.489-3.236,.793-3.187,2.404V15.911Z"/>
  </symbol>

  <symbol id="icon-arrow-left" viewBox="0 0 24 24">
    <path d="M10.6,12.71a1,1,0,0,1,0-1.42l4.59-4.58a1,1,0,0,0,0-1.42,1,1,0,0,0-1.41,0L9.19,9.88a3,3,0,0,0,0,4.24l4.59,4.59a1,1,0,0,0,.7.29,1,1,0,0,0,.71-.29,1,1,0,0,0,0-1.42Z"/>
  </symbol>

  <symbol id="icon-arrow-rigth" viewBox="0 0 24 24">
    <path d="M15.4,9.88,10.81,5.29a1,1,0,0,0-1.41,0,1,1,0,0,0,0,1.42L14,11.29a1,1,0,0,1,0,1.42L9.4,17.29a1,1,0,0,0,1.41,1.42l4.59-4.59A3,3,0,0,0,15.4,9.88Z"/>
  </symbol>
</svg>

